<svg width="346" height="85" viewBox="0 0 346 85" fill="none" xmlns="http://www.w3.org/2000/svg">
<path fill-rule="evenodd" clip-rule="evenodd" d="M329.128 0.968436C327.837 -0.322812 325.743 -0.322812 324.452 0.968436C323.161 2.25968 323.161 4.35321 324.452 5.64446L333.762 14.9544H321.411H291.621H215.334H207.089C207.066 14.9544 207.044 14.9555 207.021 14.9578C206.688 14.9916 206.428 15.2733 206.428 15.6157V22.7197V50.2243C206.428 50.7878 205.768 51.0931 205.338 50.7284L179.877 29.1124C179.758 29.0109 179.606 28.9552 179.449 28.9552H170.872C170.507 28.9552 170.211 29.2513 170.211 29.6165V77.0763H1.30829C0.943073 77.0763 0.647003 77.3724 0.647003 77.7376V84.8416H178.588C178.953 84.8416 179.249 84.5456 179.249 84.1804V81.8558L179.249 81.8512L179.249 77.7376L179.249 45.4919C179.249 44.9303 179.905 44.6243 180.335 44.9853L206.842 67.2156C206.961 67.3154 207.111 67.3702 207.267 67.3702H215.334C215.699 67.3702 215.995 67.0741 215.995 66.7089V22.7197H301.965V66.3995H311.067V22.7197H333.762L324.452 32.0297C323.161 33.3209 323.161 35.4144 324.452 36.7057C325.743 37.9969 327.837 37.9969 329.128 36.7057L344.191 21.6427C345.74 20.0932 345.74 17.5809 344.191 16.0314L329.128 0.968436ZM144.685 29.15C141.255 29.15 138.211 29.9137 135.586 31.4744L135.581 31.4774C132.989 33.0396 130.993 35.2746 129.59 38.149L129.588 38.1535C128.22 40.9952 127.553 44.2941 127.553 48.0231C127.553 51.7524 128.22 55.066 129.586 57.9383L129.592 57.9511C130.996 60.7924 132.992 63.0084 135.581 64.5688L135.586 64.5718C138.209 66.1315 141.237 66.8962 144.636 66.8962C147.574 66.8962 150.169 66.3429 152.389 65.1979C154.646 64.0506 156.342 62.3998 157.436 60.2488L157.777 59.5769L152.283 54.7522L151.674 55.7066C150.189 58.0365 147.889 59.236 144.586 59.236C141.97 59.236 140.075 58.3081 138.756 56.5014C137.401 54.6457 136.655 51.8643 136.655 48.0231C136.655 44.1484 137.418 41.376 138.795 39.5588L138.8 39.5528C140.148 37.7448 142.094 36.8101 144.785 36.8101C147.865 36.8101 150.119 37.9928 151.684 40.3539L152.298 41.2808L157.777 36.4693L157.436 35.7973C156.342 33.6463 154.646 31.9954 152.388 30.8481C150.171 29.704 147.593 29.15 144.685 29.15ZM95.0156 29.6471H120.081V37.3072H104.118V43.3225H118.34V50.9827H104.118V58.7385H120.081V66.3987H95.0156V29.6471ZM71.1497 29.6471H58.8906V66.3987H73.3378C77.1889 66.3987 80.2783 65.4884 82.4434 63.5118C84.6534 61.5249 85.6964 58.696 85.6964 55.1839C85.6964 52.8917 85.1854 50.9352 84.0742 49.3991C83.2754 48.2606 82.1259 47.3311 80.6758 46.5855C81.688 45.8787 82.5063 45.0599 83.107 44.1196C83.9852 42.745 84.4035 41.131 84.4035 39.3203C84.4035 36.1979 83.2397 33.7267 80.8599 32.0627C78.5378 30.4059 75.2552 29.6471 71.1497 29.6471ZM67.9929 43.5215V37.1083H70.8514C72.5997 37.1083 73.6922 37.4173 74.3066 37.8663L74.3208 37.8763C74.8945 38.28 75.2514 38.9369 75.2514 40.0662C75.2514 41.266 74.9147 42.0896 74.3423 42.662C73.8105 43.1937 73.0095 43.5215 71.7962 43.5215H67.9929ZM67.9929 58.9375V50.6843H71.1497C73.368 50.6843 74.7582 51.0784 75.5284 51.6747C76.2415 52.2268 76.6936 53.1661 76.6936 54.7363C76.6936 56.229 76.308 57.2315 75.672 57.892L75.6591 57.906C75.0618 58.551 74.1582 58.9375 72.7908 58.9375H67.9929ZM24.4765 31.4287C27.006 29.8968 29.971 29.15 33.3338 29.15C36.7261 29.15 39.6936 29.8952 42.1938 31.4303C44.724 32.9634 46.639 35.1717 47.9399 38.0176C49.2721 40.8592 49.9194 44.2044 49.9194 48.0231C49.9194 51.8419 49.272 55.1871 47.9398 58.0289C46.6389 60.8746 44.7239 63.0828 42.1937 64.6159C39.6935 66.151 36.7261 66.8962 33.3338 66.8962C29.971 66.8962 27.006 66.1494 24.4765 64.6174C21.946 63.0849 20.0146 60.8776 18.6801 58.033L18.6759 58.0241L18.676 58.0241C17.3786 55.1839 16.7483 51.8406 16.7483 48.0231C16.7483 44.2056 17.3786 40.8622 18.676 38.0221L18.6801 38.0131L18.6801 38.0131C20.0146 35.1685 21.946 32.9613 24.4765 31.4287ZM27.9149 39.6256C26.5764 41.5597 25.8506 44.3232 25.8506 48.0231C25.8506 51.7181 26.5745 54.5003 27.9149 56.4702C29.2592 58.3658 31.0355 59.2858 33.3338 59.2858C35.6721 59.2858 37.4439 58.3608 38.7519 56.4715L38.7536 56.469C40.126 54.5 40.8668 51.719 40.8668 48.0231C40.8668 44.3259 40.1255 41.5654 38.7576 39.6326L38.7479 39.6187L38.748 39.6187C37.4372 37.6962 35.6657 36.7604 33.3338 36.7604C31.0396 36.7604 29.2623 37.6931 27.9149 39.6256ZM270.627 29.6471H260.277L271.265 47.626L259.833 66.3987H270.072L276.529 55.4531L282.987 66.3987H293.225L281.794 47.626L292.781 29.6471H282.379L276.526 39.9473L270.627 29.6471ZM228.252 29.6471H253.317V37.3072H237.354V43.3225H251.577V50.9827H237.354V58.7385H253.317V66.3987H228.252V29.6471ZM307.783 74.4873H309.914V83.1411H314.795V84.8423H307.783V74.4873ZM285.721 84.3541C286.421 84.7782 287.249 84.9902 288.206 84.9902C289.173 84.9902 290.001 84.7782 290.691 84.3541C291.391 83.93 291.924 83.3186 292.289 82.5198C292.664 81.721 292.851 80.7693 292.851 79.6647C292.851 78.5602 292.664 77.6085 292.289 76.8097C291.924 76.0109 291.391 75.3995 290.691 74.9754C290.001 74.5513 289.173 74.3393 288.206 74.3393C287.249 74.3393 286.421 74.5513 285.721 74.9754C285.021 75.3995 284.483 76.0109 284.108 76.8097C283.744 77.6085 283.561 78.5602 283.561 79.6647C283.561 80.7693 283.744 81.721 284.108 82.5198C284.483 83.3186 285.021 83.93 285.721 84.3541ZM290.055 82.3423C289.611 82.9833 288.995 83.3038 288.206 83.3038C287.427 83.3038 286.811 82.9833 286.357 82.3423C285.913 81.6914 285.691 80.7989 285.691 79.6647C285.691 78.5306 285.913 77.6431 286.357 77.002C286.811 76.3511 287.427 76.0257 288.206 76.0257C288.995 76.0257 289.611 76.3511 290.055 77.002C290.509 77.6431 290.736 78.5306 290.736 79.6647C290.736 80.7989 290.509 81.6914 290.055 82.3423ZM264.531 84.9902C263.574 84.9902 262.746 84.7782 262.046 84.3541C261.346 83.93 260.808 83.3186 260.433 82.5198C260.069 81.721 259.886 80.7693 259.886 79.6647C259.886 78.5602 260.069 77.6085 260.433 76.8097C260.808 76.0109 261.346 75.3995 262.046 74.9754C262.746 74.5513 263.574 74.3393 264.531 74.3393C265.497 74.3393 266.326 74.5513 267.016 74.9754C267.716 75.3995 268.249 76.0109 268.614 76.8097C268.989 77.6085 269.176 78.5602 269.176 79.6647C269.176 80.7693 268.989 81.721 268.614 82.5198C268.249 83.3186 267.716 83.93 267.016 84.3541C266.326 84.7782 265.497 84.9902 264.531 84.9902ZM264.531 83.3038C265.32 83.3038 265.936 82.9833 266.38 82.3423C266.834 81.6914 267.061 80.7989 267.061 79.6647C267.061 78.5306 266.834 77.6431 266.38 77.002C265.936 76.3511 265.32 76.0257 264.531 76.0257C263.752 76.0257 263.136 76.3511 262.682 77.002C262.238 77.6431 262.016 78.5306 262.016 79.6647C262.016 80.7989 262.238 81.6914 262.682 82.3423C263.136 82.9833 263.752 83.3038 264.531 83.3038ZM238.86 74.4873H236.73V84.8423H238.86V80.4192H242.839V84.8423H244.954V74.4873H242.839V78.718H238.86V74.4873ZM218.34 84.9902C217.374 84.9902 216.526 84.7732 215.796 84.3393C215.076 83.9054 214.519 83.289 214.124 82.4902C213.74 81.6815 213.547 80.7397 213.547 79.6647C213.547 78.5898 213.74 77.6529 214.124 76.8541C214.519 76.0454 215.076 75.4241 215.796 74.9902C216.526 74.5563 217.379 74.3393 218.355 74.3393C219.183 74.3393 219.903 74.4971 220.515 74.8127C221.136 75.1283 221.595 75.577 221.891 76.1588L220.678 77.2239C220.155 76.435 219.391 76.0405 218.385 76.0405C217.507 76.0405 216.836 76.3511 216.373 76.9724C215.909 77.5839 215.678 78.4813 215.678 79.6647C215.678 80.8383 215.904 81.7358 216.358 82.3571C216.812 82.9784 217.467 83.289 218.325 83.289C219.391 83.289 220.175 82.8945 220.678 82.1056L221.891 83.1707C221.595 83.7525 221.136 84.2012 220.515 84.5168C219.903 84.8324 219.178 84.9902 218.34 84.9902ZM193.417 84.5166C194.049 84.8322 194.754 84.99 195.533 84.99C196.272 84.99 196.918 84.8717 197.471 84.635C198.033 84.3884 198.462 84.0433 198.758 83.5995C199.063 83.1458 199.216 82.6231 199.216 82.0314C199.216 81.5285 199.137 81.0945 198.98 80.7296C198.822 80.3648 198.56 80.0344 198.196 79.7385C197.84 79.4427 197.347 79.1468 196.716 78.8509C196.065 78.5452 195.577 78.2987 195.252 78.1113C194.926 77.9239 194.699 77.7513 194.571 77.5936C194.453 77.4358 194.394 77.2582 194.394 77.061C194.394 76.7356 194.517 76.4841 194.764 76.3066C195.01 76.1291 195.36 76.0403 195.814 76.0403C196.534 76.0403 197.14 76.346 197.633 76.9575L198.98 75.9515C198.713 75.4486 198.289 75.0541 197.707 74.7681C197.135 74.4821 196.475 74.3391 195.725 74.3391C195.045 74.3391 194.443 74.4525 193.92 74.6793C193.398 74.9062 192.993 75.2267 192.707 75.6409C192.421 76.0551 192.278 76.5334 192.278 77.0758C192.278 77.5689 192.377 78.0028 192.574 78.3776C192.781 78.7425 193.097 79.0827 193.521 79.3983C193.945 79.7139 194.527 80.0541 195.267 80.419C195.829 80.6951 196.233 80.917 196.48 81.0847C196.726 81.2425 196.894 81.4003 196.982 81.5581C197.071 81.7158 197.116 81.918 197.116 82.1646C197.116 82.4999 196.978 82.7711 196.701 82.9782C196.425 83.1853 196.06 83.2888 195.607 83.2888C195.202 83.2888 194.768 83.1656 194.305 82.919C193.841 82.6724 193.447 82.3569 193.122 81.9723L191.894 83.1557C192.288 83.7474 192.796 84.201 193.417 84.5166Z" fill="url(#paint0_linear_4065_24175)"/>
<defs>
<linearGradient id="paint0_linear_4065_24175" x1="0.647003" y1="73.6645" x2="351.489" y2="73.6645" gradientUnits="userSpaceOnUse">
<stop stop-color="#595BDB"/>
<stop offset="1" stop-color="#D1DCFF"/>
</linearGradient>
</defs>
</svg>
